<?xml version="1.0" standalone="no"?>
<!DOCTYPE svg PUBLIC "-//W3C//DTD SVG 20010904//EN"
 "http://www.w3.org/TR/2001/REC-SVG-20010904/DTD/svg10.dtd">
<svg version="1.0" xmlns="http://www.w3.org/2000/svg"
 width="240.000000pt" height="246.000000pt" viewBox="0 0 240.000000 246.000000"
 preserveAspectRatio="xMidYMid meet">

<g transform="translate(0.000000,246.000000) scale(0.100000,-0.100000)"
fill="#000000" stroke="none">
<path d="M1974 2136 c-106 -39 -253 -131 -427 -268 l-68 -54 -72 25 c-63 21
-90 25 -207 25 -119 0 -144 -3 -207 -25 l-73 -25 -97 69 c-232 164 -407 250
-513 251 -59 1 -65 -1 -78 -24 -34 -63 15 -403 93 -648 35 -108 35 -115 20
-139 -30 -46 -56 -137 -61 -218 -18 -258 131 -487 434 -666 154 -91 403 -189
482 -189 49 0 216 58 348 120 153 73 265 151 367 254 142 143 198 272 197 451
0 95 -24 194 -60 248 -18 26 -18 29 4 95 32 95 81 344 95 482 11 116 7 206
-12 241 -14 26 -87 24 -165 -5z m-1167 -953 c40 -19 86 -77 104 -130 14 -44 4
-54 -77 -80 -68 -21 -114 -12 -164 33 -36 33 -80 120 -80 159 0 34 157 47 217
18z m923 -6 c40 -14 42 -31 9 -107 -51 -115 -142 -149 -257 -95 -47 22 -53 27
-46 47 21 71 74 137 124 157 34 13 128 12 170 -2z m-446 -517 c31 -12 37 -45
6 -35 -35 11 -60 -3 -60 -35 0 -27 -22 -60 -39 -60 -16 0 -39 36 -43 65 -3 27
-6 30 -41 30 -41 0 -45 6 -21 29 18 19 155 23 198 6z m-94 -194 c0 -22 50 -77
85 -93 29 -13 27 -14 -34 -9 -35 4 -91 6 -125 6 l-60 0 44 23 c29 14 50 34 60
54 16 34 30 43 30 19z"/>
</g>
</svg>
